<?xml version="1.0" encoding="utf-8"?>
<!-- Generator: Adobe Illustrator 26.0.3, SVG Export Plug-In . SVG Version: 6.00 Build 0)  -->
<svg version="1.1" id="Layer_1" xmlns="http://www.w3.org/2000/svg" xmlns:xlink="http://www.w3.org/1999/xlink" x="0px" y="0px"
	 viewBox="0 0 123.4 100.9" style="enable-background:new 0 0 123.4 100.9;" xml:space="preserve">
<style type="text/css">
	.st0{fill:#5D63FF;}
</style>
<path class="st0" d="M114.4,21.4c-17.6,0.1-35.3,0.2-52.9,0.3c-9.2,0-18.3,0-27.5,0c-2,0-4.5,0.3-4.6-2.5c-0.1-3.2,2.6-2.9,4.7-2.9
	c27.6,0,55.3,0,82.9,0c4.1,0,5.8,1.1,4.6,5.6c-3.2,11.3-6.1,22.8-9,34.2c-0.8,3-2.3,3.9-5.2,3.9c-19.8-0.1-39.6,0-59.4-0.1
	c-2.1,0-4.8,0.4-4.6-2.9c0.2-2.9,2.8-2.3,4.7-2.3c18.3,0,36.6-0.1,54.9,0.1c3.5,0,4.9-0.9,5.7-4.3c1.8-8.1,4.2-16.1,6.2-24.1
	c0.4-1.6,1.2-3.1,0.5-4.8l-0.4-0.8L114.4,21.4z"/>
<path class="st0" d="M75.4,76.7c-11.7,0-23.3-0.1-35,0.1c-3.6,0.1-5.2-1.2-6.2-4.7c-5.5-19.7-11.4-39.3-16.8-58.9
	c-1.1-4-2.7-5.6-6.8-5C8.5,8.3,6.4,8.3,4.2,8.2C2.6,8.2,1.3,8,1.3,5.8S2.4,3,4.3,3c3.3,0.1,6.7,0.1,10-0.1c4.2-0.5,6.1,1.1,7.3,5.3
	C27,27.7,32.9,47.1,38.3,66.7c1,3.5,2.3,4.7,6,4.6c20.8-0.2,41.6-0.1,62.4-0.1c1.2,0,2.3-0.1,3.5,0c2.3,0.2,5.9-1,6,2.6
	s-3.4,2.8-5.8,2.8C98.8,76.7,87.1,76.7,75.4,76.7z"/>
<path class="st0" d="M107.6,90.4c-0.1,4.8-4,8.7-8.8,8.6c-4.8-0.1-8.7-4-8.6-8.8c0.1-4.8,3.9-8.6,8.7-8.6c4.8,0,8.7,3.8,8.7,8.5
	C107.6,90.2,107.6,90.3,107.6,90.4z"/>
<path class="st0" d="M67.4,90.4c-0.1,4.8-4,8.7-8.8,8.6s-8.7-4-8.6-8.8c0.1-4.8,4-8.6,8.7-8.6c4.8,0,8.7,3.8,8.7,8.6
	C67.4,90.2,67.4,90.3,67.4,90.4z"/>
<path class="st0" d="M114.4,21.4l0.5-0.7l0.4,0.8l-0.5,0.1L114.4,21.4z"/>
</svg>
