<?xml version="1.0" encoding="utf-8"?>
<!-- Generator: Adobe Illustrator 26.0.3, SVG Export Plug-In . SVG Version: 6.00 Build 0)  -->
<svg version="1.1" id="Layer_1" xmlns="http://www.w3.org/2000/svg" xmlns:xlink="http://www.w3.org/1999/xlink" x="0px" y="0px"
	 viewBox="0 0 123.4 90.1" style="enable-background:new 0 0 123.4 90.1;" xml:space="preserve">
<style type="text/css">
	.st0{fill:#5D63FF;}
</style>
<path class="st0" d="M109.1,2.8L109.1,2.8c-22.6,0.1-45.6,0-67.8,0H14C7.1,2.8,2.5,7.4,2.5,14.3v53.5c0,2.9,0,5.8,0,8.8
	c0,2.3,0.8,4.6,2.3,6.4c2.2,2.9,5.7,4.5,9.3,4.3h96c4.2,0,8-2.3,9.8-6c0.2-0.4,0.3-0.7,0.4-1.1c0.2-0.6,0.4-1.3,0.8-1.8V12.1
	c-0.1-0.2-0.2-0.3-0.2-0.5C119.6,6.2,115,2.8,109.1,2.8z M115.1,75.8c0,3.8-1.9,5.7-5.8,5.7H49.2c-11.5,0-23.3,0-35,0.1h-0.1
	C12.5,81.6,11,81,9.8,80c-1.1-1.2-1.6-2.7-1.6-4.3c0-15.1,0-30.2,0-45.3V14.5c0-4,1.8-5.8,5.8-5.8h95.3c3.9,0,5.8,1.9,5.8,5.7
	L115.1,75.8z"/>
<path class="st0" d="M24,21.5c0-1-0.5-1.9-1.3-2.5c-0.5-0.3-1-0.5-1.6-0.5c-0.4,0-0.7,0.1-1.1,0.2c-0.8,0.3-1.8,1-1.8,3.3v46
	c0,0.3,0,0.6,0,0.9c0.1,1.6,1.6,2.8,3.2,2.7c0.5,0,1-0.2,1.4-0.5c0.8-0.6,1.2-1.6,1.2-2.6c0-5.6,0-11.1,0-16.7V29.6
	C24,26.9,24,24.2,24,21.5z"/>
<path class="st0" d="M105.2,21.3c0-0.9-0.5-1.7-1.2-2.3c-0.5-0.3-1.1-0.5-1.7-0.5c-0.3,0-0.7,0.1-1,0.2c-1.2,0.4-2,1.5-2,2.7
	c0,12.5,0,25,0,37.5v9.8c0,0,0,0.1,0,0.2c0.1,0.9,0.5,1.6,1.3,2.1c0.7,0.5,1.6,0.7,2.4,0.4c1.4-0.3,2.4-1.7,2.2-3.2V28.8
	c0-0.7,0-1.4,0-2.1C105.2,24.9,105.2,23.1,105.2,21.3z"/>
<path class="st0" d="M71.2,22.5c0-0.5,0-1-0.1-1.5c-0.1-0.8-0.6-1.5-1.2-2c-0.5-0.3-1-0.5-1.6-0.5c-0.3,0-0.5,0-0.8,0.1
	c-1.5,0.4-2.2,1.5-2.2,3.3c0,6.7,0,13.5,0,20.2v10.1c0,0.5,0,0.9,0.2,1.3c0.3,1.2,1.4,2.1,2.7,2.1c1.3,0,2.4-0.7,2.8-1.9
	c0.2-0.6,0.2-1.2,0.2-1.9V33.8C71.2,30,71.2,26.3,71.2,22.5z"/>
<path class="st0" d="M55.5,22.3c0-0.5,0-1-0.1-1.5c-0.3-1.3-1.4-2.2-2.8-2.2c-0.3,0-0.6,0-0.8,0.1c-1.3,0.4-2.2,1.6-2.1,3
	c0,8.8,0,17.6,0,26.4v4.7c0,0.2,0,0.5,0.1,0.7c0.3,1.4,1.5,2.3,2.8,2.3l0,0c1.7,0,2.9-1.4,2.9-3.4c0-3.6,0-7.2,0-10.8L55.5,22.3
	L55.5,22.3z"/>
<path class="st0" d="M33.9,32.5v19.7c0,0.6,0,1.1,0.1,1.7c0.4,1.3,1.8,2.2,3.2,2c1.5-0.2,2.6-1.4,2.5-2.9c0-2.3,0-4.6,0-6.9v-8
	c0-5.4,0-10.8,0-16.2c0.2-1.4-0.7-2.7-2-3.2c-0.9-0.3-1.8-0.2-2.6,0.3c-0.9,0.7-1.3,1.7-1.3,2.8C33.9,25.4,33.9,28.9,33.9,32.5z"/>
<path class="st0" d="M89.5,41.7V22.1c0.1-0.8-0.1-1.6-0.5-2.2c-0.5-0.8-1.5-1.3-2.4-1.3c-0.3,0-0.5,0-0.8,0.1
	c-1.3,0.3-2.1,1.5-2.1,2.8c0,2.4,0,4.9,0,7.3v23.7c-0.1,1.4,0.7,2.6,1.9,3.1c0.9,0.3,1.8,0.2,2.6-0.3c0.9-0.7,1.4-1.7,1.3-2.8
	C89.5,49,89.5,45.3,89.5,41.7z"/>
<path class="st0" d="M52.5,71.6c0.8,0,1.5-0.3,2.1-0.8c0.6-0.5,0.9-1.3,0.9-2.1c0-1.6-1.3-2.9-2.9-2.9h-0.1c-1.6,0-2.9,1.3-2.9,2.9
	C49.6,70.2,50.9,71.5,52.5,71.6z"/>
<path class="st0" d="M68.2,65.7c-1.6,0-2.9,1.3-2.9,2.9c0,0.8,0.3,1.5,0.9,2.1c0.6,0.5,1.3,0.9,2.1,0.9c1.6,0,2.9-1.3,2.9-2.9
	c0-0.8-0.3-1.5-0.8-2.1C69.8,66,69,65.7,68.2,65.7z"/>
<path class="st0" d="M36.8,71.6c1.6-0.1,2.9-1.4,2.8-3.1c-0.1-1.5-1.2-2.7-2.7-2.8c-1.6,0-2.9,1.2-2.9,2.8c0,0,0,0.1,0,0.1
	C33.9,70.2,35.2,71.5,36.8,71.6z"/>
<path class="st0" d="M84.5,70.7c0.6,0.5,1.3,0.9,2.1,0.9c1.6,0,2.9-1.3,2.9-2.9c0-1.6-1.3-2.9-2.8-2.9h-0.1c-0.7,0-1.5,0.3-2,0.8
	c-0.6,0.5-0.9,1.3-0.9,2.1C83.7,69.4,84,70.1,84.5,70.7z"/>
</svg>
