<?xml version="1.0" encoding="utf-8"?>
<!-- Generator: Adobe Illustrator 26.0.3, SVG Export Plug-In . SVG Version: 6.00 Build 0)  -->
<svg version="1.1" id="Layer_1" xmlns="http://www.w3.org/2000/svg" xmlns:xlink="http://www.w3.org/1999/xlink" x="0px" y="0px"
	 viewBox="0 0 123.4 100.9" style="enable-background:new 0 0 123.4 100.9;" xml:space="preserve">
<style type="text/css">
	.st0{fill:#5D63FF;}
</style>
<g id="JuIX1k">
	<path class="st0" d="M121,24.2c-0.4,0.8-0.5,1.7-0.4,2.5c-0.9,10-1.7,20-2.5,30.1c-0.5,5.6-0.9,11.3-1.4,16.9
		c-0.2,4.9-4.3,8.8-9.3,8.6c-0.2,0-0.5,0-0.7-0.1c-0.8,0-1.9-0.6-2.4-0.1s-0.2,1.7-0.2,2.5c0.1,2.3,0,4.7-0.2,7
		c-0.6,4.3-4.2,7.5-8.6,7.6H12.1c-6,0-9.7-3.7-9.7-9.6V39c0-5.9,3.7-9.6,9.7-9.6c1.6,0,3.3,0,5,0c0.8,0,1-0.3,1.1-1
		c0.5-4.9,1-9.9,1.6-14.8c0.5-4.9,4.8-8.5,9.7-8c0,0,0.1,0,0.1,0c11.9,1,23.9,2,35.8,3c11.5,1,23,1.9,34.4,2.9
		c4.5,0.4,8.9,0.6,13.4,1.2c3.7,0.4,6.8,3.2,7.5,6.9c0,0.1,0,0.3,0.2,0.3L121,24.2z M53.2,61.9c-15,0-30,0-45,0
		C7.3,61.9,7,62.1,7,63c0,9,0,18,0,27c0,3.1,1.7,4.8,4.9,4.8h82.5c3.3,0,5-1.7,5-5c0-8.9,0-17.8,0-26.7c0-1-0.3-1.2-1.2-1.2
		C83.2,61.9,68.2,61.9,53.2,61.9z M59.4,29.3c11.6,0,23.1,0,34.7,0c1,0,2.1,0.1,3.1,0.3c4.1,1,7,4.8,6.8,9.1c0,11.8,0,23.6,0,35.4
		c0,3.5,0,3.5,3.5,3.6c2.3,0.1,4.3-1.7,4.4-4c0.6-7,1.2-14.1,1.8-21.1c0.8-10.1,1.7-20.1,2.5-30.2c0.3-3.2-1.3-5.1-4.6-5.4
		s-6.3-0.5-9.4-0.8L75.9,14c-7.8-0.6-15.7-1.3-23.5-1.9s-15.5-1.3-23.3-2c-2.3-0.3-4.4,1.3-4.7,3.6c0,0.1,0,0.1,0,0.2
		c-0.6,4.7-1,9.5-1.6,14.2c-0.1,1,0.1,1.2,1.1,1.2C35.7,29.3,47.6,29.3,59.4,29.3z M53.2,57.3c15,0,29.9,0,44.9,0
		c1,0,1.3-0.2,1.3-1.2c-0.1-2.3-0.1-4.7,0-7.1c0-1.1-0.3-1.4-1.4-1.4c-27.2,0-54.5,0-81.7,0c-2.8,0-5.6,0-8.3,0c-0.7,0-1,0.2-1,1
		c0,2.5,0.1,5,0,7.5c0,0.9,0.2,1.2,1.2,1.2C23.2,57.3,38.2,57.2,53.2,57.3z M53.2,43h30.4c4.9,0,9.8,0,14.7,0c0.8,0,1.1-0.2,1-1
		s0-1.8,0-2.8c0-3.7-1.6-5.3-5.3-5.3H12.4c-0.4,0-0.9,0-1.3,0c-2.3,0.1-4.1,2.1-4,4.4c0,1.2,0.1,2.3,0,3.5C7,42.8,7.2,43,8.2,43
		C23.2,43,38.2,43,53.2,43L53.2,43z"/>
	<path class="st0" d="M78.5,87.9c-3.6,0-7.1,0-10.6,0c-1.9,0-2.7-0.8-2.8-2.7c0-4.6,0-9.1,0-13.7c0-1.9,0.8-2.8,2.7-2.8
		c7.1,0,14.3,0,21.4,0c2,0,2.8,0.9,2.8,2.8V85c0,2.1-0.8,2.9-2.9,2.9C85.6,87.9,82,87.9,78.5,87.9z M78.5,83.3c2.7,0,5.3,0,8,0
		c0.7,0,0.9-0.1,0.9-0.9c0-2.7,0-5.5,0-8.2c0-0.7-0.2-0.8-0.8-0.8c-5.3,0-10.7,0-16,0c-0.6,0-0.9,0.2-0.9,0.8c0,2.7,0.1,5.5,0,8.2
		c0,0.8,0.2,0.9,0.9,0.9C73.2,83.3,75.9,83.3,78.5,83.3z"/>
</g>
</svg>
