<?xml version="1.0" encoding="utf-8"?>
<!-- Generator: Adobe Illustrator 26.0.3, SVG Export Plug-In . SVG Version: 6.00 Build 0)  -->
<svg version="1.1" id="Layer_1" xmlns="http://www.w3.org/2000/svg" xmlns:xlink="http://www.w3.org/1999/xlink" x="0px" y="0px"
	 viewBox="0 0 70.6 80.5" style="enable-background:new 0 0 70.6 80.5;" xml:space="preserve">
<style type="text/css">
	.st0{fill:#5D63FF;}
</style>
<path class="st0" d="M70.6,68.9c-0.4-5.5-0.8-11-1.2-16.5l-0.5-7.1c-0.2-2.1-0.3-4.2-0.5-6.3c-0.4-4.9-0.8-10-1.1-15
	c0-2.1-0.8-4.1-2.2-5.6c-1.6-1.6-3.8-2.4-6-2.1c-1.7,0.1-3.3,0.1-5,0s-3.2,0-4.8,0c-0.7,0.1-1.4-0.1-2-0.5c-0.4-0.6-0.6-1.3-0.5-2
	v-0.2c0.2-1.7,0.1-3.5-0.4-5.2C45,3.7,42,1,37.6,0.3c-0.2,0-0.4-0.1-0.5-0.3h-3.3l-0.9,0.3c-0.7,0.2-1.4,0.5-2,0.9
	C26.6,3.5,24.5,7,24.4,12c0,4.1-0.3,4.3-4.3,4.3h-3c-2.2,0-4.4,0-6.6,0c-4.1,0-6.9,2.6-7.2,6.8L3,27c-0.3,4.5-0.7,9-1,13.5l-0.4,5.2
	c-0.6,6.9-1.1,14-1.6,20.9c-0.4,6.7,2.3,11,8.6,13.4c0.2,0.1,0.5,0.2,0.6,0.4h51.6c0.4-0.4,0.9-0.6,1.4-0.5c0.1,0,0.3,0,0.4,0
	C66.5,79.2,70.9,73,70.6,68.9z M28.4,14.5c0-0.6,0-1.2,0-1.8s0-1.1,0-1.6c0-3.9,3.1-7.1,7.1-7.2c3.8-0.2,7.1,2.5,7.6,6.3
	c0.5,2.6,0.7,4.2-0.1,5.1c-0.8,0.9-2.3,0.9-4.9,0.9h-4c-1.3,0-2.6,0-3.9,0h-0.2c-0.4,0-0.9-0.1-1.2-0.4C28.4,15.5,28.3,15,28.4,14.5
	z M59.1,76.6c-3.1,0-6.3,0-9.4,0H13.1c-2.5,0.1-5-0.8-6.7-2.6c-1.7-2-2.4-4.7-2-7.3c0.5-5,0.9-10,1.2-14.9C5.8,49.9,5.9,48,6,46
	c0.6-7.6,1.2-15.3,1.7-22.9c-0.1-1.6,1.2-2.9,2.7-3c0.1,0,0.3,0,0.4,0c1.7,0,3.5,0,5.2,0c2.2,0,4.5,0,6.8,0c0.5,0,0.9,0.1,1.2,0.4
	c0.3,0.4,0.4,0.8,0.4,1.3c0,1.2,0,2.6,0,4.3c0,2,0.8,2.4,1.9,2.4h0c1,0,1.9-0.3,2-2.4c0-1.1,0-2.6,0-4.1c-0.1-0.5,0.1-1,0.4-1.4
	c0.4-0.3,0.8-0.4,1.3-0.4c3.4,0,7,0.1,11.4,0c0.5-0.1,1,0.1,1.4,0.4c0.3,0.4,0.4,0.8,0.4,1.3c0,1,0,2.1,0,3.2c0,0.5,0,1,0,1.5
	c0,1.2,0.5,1.8,1.7,1.9c0.5,0.1,1.1-0.1,1.5-0.5c0.4-0.4,0.6-0.9,0.6-1.5c0.1-1.3,0.1-2.8,0-4.7c-0.1-0.5,0.1-1,0.4-1.4
	c0.4-0.3,0.8-0.4,1.3-0.4c2.3,0,4.5,0,6.8,0c1.9,0,3.8,0,5.7,0c1.5-0.2,2.9,1,3.1,2.5c0,0.1,0,0.2,0,0.3l1.6,20.7l0.2,3.4
	c0.2,2,0.3,4,0.4,5.9c0.3,4.7,0.7,9.5,1.1,14.3c0.3,2.5-0.4,5-2.1,6.9C63.8,75.7,61.5,76.7,59.1,76.6z"/>
<path class="st0" d="M49.6,36.2c-3.6-3.7-8.6-5.7-13.7-5.7l0,0c-10.7,0-19.4,8.7-19.4,19.4c0,10.7,8.7,19.4,19.4,19.4l0,0
	c10.7,0,19.4-8.7,19.4-19.4C55.3,44.8,53.2,39.9,49.6,36.2z M35.9,66.4L35.9,66.4c-9.1,0-16.4-7.4-16.4-16.5
	c0-9.1,7.4-16.4,16.4-16.4l0,0c9.1,0,16.4,7.4,16.4,16.5C52.3,59,45,66.4,35.9,66.4z"/>
<path class="st0" d="M42.7,56.2l-2.4-2.4l-2.8-2.8c-0.1-0.1-0.1-0.1-0.1-0.2V37.9c0-0.2,0-0.4,0-0.6c-0.2-0.8-1-1.3-1.8-1.1
	c-0.2,0-0.4,0.1-0.6,0.3c-0.4,0.3-0.6,0.8-0.6,1.3c0,1.7,0,3.5,0,5.2v3.3c0,1.7,0,3.3,0,5c0,0.5,0.2,0.9,0.5,1.3
	c1,1,1.9,1.9,2.9,2.9l1.5,1.5l1.4,1.4c0.3,0.3,0.6,0.4,1,0.4c0.2,0,0.3,0,0.5-0.1c0.5-0.2,0.9-0.6,1-1.1
	C43.3,57.1,43.1,56.5,42.7,56.2z"/>
</svg>
