<?xml version="1.0" encoding="utf-8"?>
<!-- Generator: Adobe Illustrator 26.0.3, SVG Export Plug-In . SVG Version: 6.00 Build 0)  -->
<svg version="1.1" id="Layer_1" xmlns="http://www.w3.org/2000/svg" xmlns:xlink="http://www.w3.org/1999/xlink" x="0px" y="0px"
	 viewBox="0 0 69 74.3" style="enable-background:new 0 0 69 74.3;" xml:space="preserve">
<style type="text/css">
	.st0{fill:#5D63FF;}
</style>
<g id="_4rf51y">
	<path class="st0" d="M0.7,38.4c0-10.5,0-21.1,0-31.6C0.7,5,1.5,4.2,3,3.4c4.7-2.5,9.3-3.1,14-0.1c0.7,0.5,1.6,0.5,2.3,0
		c4-2.7,9.3-2.7,13.3,0c0.7,0.5,1.7,0.5,2.5,0c4.4-2.8,8.8-2.5,13.3-0.1c2,1,2.8,1.9,2.8,4.1c-0.1,8.7,0,17.3-0.1,26
		c0,1.7,0.3,2.4,2.2,2.7c10,2,16.5,11.8,14.4,21.8c-1.5,7.2-7.1,12.9-14.3,14.4c-3.8,0.9-7.8,0.5-11.3-1.2c-0.9-0.6-2.1-0.6-3,0
		c-3.6,2.3-7.2,2-10.8-0.1c-1.4-0.9-3.2-0.9-4.6,0c-3.3,2.3-7.7,2.3-11,0.1C11.1,70,9.2,70,7.7,71c-1.2,0.6-2.5,1.1-3.8,1.5
		c-2.3,0.9-3.1,0.4-3.1-2.1C0.7,59.7,0.7,49,0.7,38.4z M39.3,38.4h-7.9c-6.9,0-13.7,0-20.6,0c-1.2,0-2.3-0.2-2.2-1.6
		s1.1-1.6,2.3-1.5H42c0.9-0.1,1.7,0.1,2.5,0.6c0.9,0.7,3.3-0.3,3.3-1.2c0-9,0-18.1,0-27.1c0-0.5,0-1-0.6-1.2c-3.1-1.2-6-3.1-9.5-0.8
		c-2.3,1.5-4.9,2-7.5,0.3c-3-1.9-6-1.7-8.9,0c-2,1.4-4.7,1.4-6.7,0C11.4,3.7,8.3,4.3,5.1,6C4.3,6.3,3.8,7,3.9,7.8
		c0,19.8,0,39.7,0,59.5c0,1.6,0.5,1.7,1.7,1c2.8-1.9,6.5-1.9,9.3,0c0.3,0.2,0.6,0.2,0.9,0.4c1.4,0.9,3.2,0.9,4.6,0
		c3.4-2.3,7.8-2.3,11.2,0c2.1,1.3,3.8,0.4,5.7-0.7c-3.8-3.3-6.1-8-6.3-13c0-1.3-0.9-0.9-1.6-0.9c-6.1,0-12.2,0-18.4,0
		c-1.2,0-2.4-0.1-2.4-1.7S9.9,51,11,51c5.5,0,11,0,16.5,0c3.5,0,3.4,0,4.6-3.3c0.5-1.4,0.1-1.5-1.1-1.5c-6.6,0-13.1,0-19.7,0
		c-1.2,0-2.6,0.1-2.7-1.5s1.4-1.6,2.6-1.6c7.2,0,14.5,0,21.7,0c0.6,0,1.3,0.2,1.8-0.3C36.1,41.2,37.7,39.7,39.3,38.4L39.3,38.4z
		 M64.8,54c0-8.5-7-15.3-15.5-15.3S34,45.7,34,54.2c0,8.5,7,15.3,15.5,15.3c0,0,0,0,0,0C58,69.4,64.8,62.5,64.8,54z"/>
	<path class="st0" d="M26.6,22.7c-5.3,0-10.6,0-15.9,0c-1.2,0-2.2-0.4-2.1-1.8c0.1-1,0.9-1.4,1.9-1.4h32.2c1.1,0,1.9,0.3,2,1.5
		s-0.8,1.6-2,1.6C37.3,22.7,31.9,22.7,26.6,22.7z"/>
	<path class="st0" d="M26.5,30.5c-5.2,0-10.3,0-15.5,0c-1.2,0-2.4-0.1-2.4-1.6s1.2-1.5,2.4-1.5c10.5,0,20.9,0,31.4,0
		c1.1,0,2.3,0.1,2.3,1.5c0,1.6-1.2,1.6-2.4,1.6C37,30.5,31.8,30.5,26.5,30.5z"/>
	<path class="st0" d="M25.9,14.9c-2.4,0-4.9,0-7.3,0c-1.1,0-2.1-0.3-2.1-1.6s0.9-1.6,2.1-1.6c4.9,0,9.7,0,14.6,0
		c1.2,0,2.1,0.3,2.1,1.5s-0.9,1.6-2.1,1.6C30.8,14.9,28.3,14.9,25.9,14.9z"/>
	<path class="st0" d="M46.1,49.3c0,1.8,1.2,3,3.6,3.2c3.5,0.2,6.1,3.2,5.9,6.6c0,0.8-0.2,1.5-0.6,2.3c-0.4,0.9-1,1.7-1.8,2.3
		c-1.3,0.8-2.7,1.4-2.4,3.4c0.1,0.7-0.8,1.1-1.5,1.1c-0.7,0-1.4-0.5-1.4-1.3c0-0.1,0-0.1,0-0.2c0.2-1.2-0.6-2.4-1.8-2.6
		c-1-0.5-2.1-1.3-1.2-2.6s1.7-0.8,2.7-0.1c1.1,0.8,2.6,0.7,3.7-0.2c1-0.8,1.4-2.1,1-3.3c-0.4-1.3-1.5-2.2-2.9-2.2
		c-3.5,0-6.3-2.8-6.3-6.2c0-2.4,1.3-4.5,3.4-5.6c0.8-0.4,1.5-0.8,1.3-1.9c-0.2-0.8,0.2-1.7,1.1-1.9C48.8,40,49,40,49.2,40
		c1.2,0,1.7,0.9,1.6,2c-0.2,0.7,0.2,1.5,0.9,1.7c0,0,0,0,0.1,0c0.6,0.2,1.1,0.6,1.6,1c0.9,0.7,1.3,1.6,0.5,2.6s-1.6,0.6-2.5-0.1
		c-2.2-1.7-4.7-0.9-5.2,1.6C46.2,49,46.2,49.2,46.1,49.3z"/>
</g>
</svg>
