<?xml version="1.0" encoding="utf-8"?>
<!-- Generator: Adobe Illustrator 26.0.3, SVG Export Plug-In . SVG Version: 6.00 Build 0)  -->
<svg version="1.1" id="Layer_1" xmlns="http://www.w3.org/2000/svg" xmlns:xlink="http://www.w3.org/1999/xlink" x="0px" y="0px"
	 viewBox="0 0 69 67.4" style="enable-background:new 0 0 69 67.4;" xml:space="preserve">
<style type="text/css">
	.st0{fill:#5D63FF;}
</style>
<path class="st0" d="M67.2,33.7C67.3,18.5,56.9,5.1,42.1,1.5c-1-0.3-2-0.5-3-0.6c-0.1,0-0.3,0-0.4,0.1c-0.3,0.2-0.3,1.6-0.3,3.3
	c0,0.2,0,0.3,0,0.5c-0.1,0.4-0.1,0.8,0.1,1.2c0.4,0.4,0.9,0.6,1.4,0.6C52.4,9.2,61.5,19.9,62,32.6c0.4,12.6-7.7,23.8-19.8,27.5
	c-0.6,0.1-1.1,0.2-1.7,0.3c-0.9,0.1-1.8,0.2-2,0.6c-0.3,0.8-0.3,1.6-0.2,2.3c0.1,0.7,0.1,1.3,0,2c-0.1,0.7,0.1,0.8,0.1,0.8
	s0.2,0.1,1.1,0C55.4,63.6,67.1,49.9,67.2,33.7z"/>
<path class="st0" d="M32.6,37.2c3.3,1.9,6.5,3.9,9.8,5.8l3.9,2.3c0.6,0.5,1.3,0.8,2,1c0.3,0,0.7-0.8,1.3-1.7l0.2-0.3
	c0.4-0.5,0.3-0.7,0.3-0.7s-0.6-0.5-0.8-0.5c-2.2-1.3-4.5-2.6-6.7-4c-2-1.2-3.9-2.3-5.9-3.5c-1-0.5-1.6-1.5-1.5-2.5
	c0.1-1.7,0-3.5,0-5.2c0-0.7,0-1.4,0-2.1v-5.5c0.1-0.8,0-1.7-0.2-2.5c-0.7-0.3-1.5-0.4-2.3-0.3h-0.4c-0.5,0-0.7,0.1-0.7,0.1
	s-0.1,0.3-0.1,0.9c0.1,5.4,0.1,11.1,0,16.9C31.5,36.2,31.9,36.9,32.6,37.2z"/>
<path class="st0" d="M30.3,1.1c0,0-0.1-0.1-0.4-0.1c-0.2,0-0.4,0-0.6,0.1c-4.9,0.8-9.6,2.6-13.7,5.4c-0.5,0.3-1,0.7-1.4,1.1
	c0.3,0.5,0.7,0.9,1.1,1.3l0.7,0.7c0.5,0.5,1.1,1.1,1.5,1.6c0.3,0.4,0.3,0.4,0.8,0c2.8-2.1,6-3.6,9.4-4.4c2.5-0.6,2.5-0.6,2.5-3.3
	l0,0c0-0.2,0-0.3,0-0.5c0-0.4,0-0.8,0-1.2C30.4,1.3,30.3,1.1,30.3,1.1z"/>
<path class="st0" d="M2.2,26.9c-0.2,0.8-0.3,1.7-0.3,2.5c0.9,0.3,1.9,0.3,2.9,0.2h0.4c0.2,0,0.4,0,0.6,0.1c0.3,0.1,0.7,0.1,1-0.1
	c0.3-0.3,0.5-0.8,0.5-1.3c0.5-2.6,1.4-5.2,2.7-7.6c0.3-0.6,0.7-1.1,1.1-1.6c0.7-0.9,1.2-1.4,0.9-2c-0.4-0.9-1.1-1.6-1.9-2.2
	c-0.5-0.4-1-0.8-1.4-1.3c-0.1-0.1-0.2-0.2-0.4-0.3c0,0-0.1,0.1-0.3,0.4C5.2,17.7,3.1,22.1,2.2,26.9z"/>
<path class="st0" d="M1.8,38.4c0.8,5.5,3,10.7,6.4,15.2c0.1,0.1,0.2,0.2,0.3,0.3c0.1,0,0.1-0.1,0.2-0.2c1-1.1,2.1-2.2,3.2-3.2
	c0.4-0.4,0.5-0.5,0.1-1c-2-2.8-3.5-6-4.3-9.4c-0.6-2.4-0.6-2.4-3.1-2.4H3.8c-0.5,0-1,0-1.5,0c-0.2-0.1-0.4-0.1-0.6,0l0,0
	C1.7,37.9,1.8,38.2,1.8,38.4z"/>
<path class="st0" d="M29,60.8c-2.7-0.5-5.3-1.4-7.7-2.7c-0.5-0.3-1-0.6-1.5-1c-0.8-0.7-1.4-1.1-1.9-1c-0.8,0.4-1.5,1-2,1.7
	c-0.4,0.5-0.8,0.9-1.3,1.3c-0.2,0.1-0.3,0.3-0.4,0.5l0,0c0.2,0.2,0.3,0.3,0.5,0.4c3.8,2.9,8.2,4.9,12.9,6c0.8,0.3,1.7,0.4,2.6,0.4
	c0.2-0.8,0.3-1.7,0.2-2.5v-0.4c0-0.3,0-0.7,0-1C30.5,61.3,30.3,61,29,60.8z"/>
</svg>
