<?xml version="1.0" encoding="utf-8"?>
<!-- Generator: Adobe Illustrator 26.0.3, SVG Export Plug-In . SVG Version: 6.00 Build 0)  -->
<svg version="1.1" id="Layer_1" xmlns="http://www.w3.org/2000/svg" xmlns:xlink="http://www.w3.org/1999/xlink" x="0px" y="0px"
	 viewBox="0 0 53.2 59.8" style="enable-background:new 0 0 53.2 59.8;" xml:space="preserve">
<style type="text/css">
	.st0{fill:#5D63FF;}
</style>
<g>
	<path class="st0" d="M48.7,43.9c-0.3-0.9-0.8-1.6-1.5-2c-0.5-0.3-0.9-0.6-1.4-0.8c-0.3-0.1-0.5-0.3-0.8-0.4h-0.1h-0.1
		c-0.4-0.2-0.8-0.4-1.2-0.5c-0.4-0.2-0.8-0.3-1.2-0.5s-0.8-0.4-1.2-0.5s-0.8-0.3-1.3-0.5c-1.2-0.5-2.5-1-4-1.5
		c-0.4-0.1-0.8-0.1-1.2-0.1c-0.8,0.1-1.5,0.4-1.9,0.9c-0.8,0.6-1.5,1.5-2,2.5c-0.3,0.5-0.6,0.9-0.9,1.2c-0.2-0.1-0.7-0.2-1.1-0.5
		c-0.2-0.2-0.5-0.4-0.8-0.6c-0.3-0.3-0.6-0.5-0.9-0.7c-1.3-0.8-2.5-1.8-3.6-2.9c-0.9-0.9-1.6-1.7-2.3-2.5c-0.9-1.1-1.7-2.2-2.4-3.4
		c-0.7-1-1.2-2.3-1.9-3.7L16.7,27c-0.2-0.3-0.3-0.5-0.4-0.8c0-0.1-0.1-0.3-0.1-0.5s-0.1-0.4-0.1-0.5v-0.1c0.3-0.2,0.6-0.4,1.1-0.6
		c0.2,0,0.5-0.1,0.7-0.2s0.4-0.2,0.6-0.3c0.2-0.1,0.5-0.2,0.7-0.3c0.6-0.3,1.2-0.7,1.6-1.2c0.6-0.6,0.9-1.5,0.8-2.5l-0.1-0.3
		c0-0.1,0-0.2-0.1-0.3c0-0.1,0-0.1,0-0.2c-0.1-0.9-0.3-1.9-0.5-2.9c-0.2-0.7-0.3-1.5-0.5-2.2c-0.2-0.9-0.4-1.8-0.6-2.7l-0.1-0.3
		c-0.3-0.9-0.6-2-1.2-2.9c-0.7-1-1.5-1.6-2.4-1.8c-0.6-0.2-1.3-0.2-1.9-0.2H14c-0.3,0-0.9,0-1.5,0.1c-1.6,0.2-3,0.6-4.2,1.2
		C7.2,7.7,6,8.7,4.9,9.9c-1,1.2-1.7,2.5-2.2,4c-0.3,0.8-0.6,1.7-0.7,2.6c-0.1,0.6-0.1,1.2-0.1,1.7v0.3c0,0.7,0,1.3,0.1,2
		c0,0.5,0.1,1,0.2,1.5c0.1,0.7,0.3,1.4,0.5,2.2C2.9,24.6,3,25,3.2,25.5c0.1,0.4,0.3,0.8,0.4,1.2C4,27.9,4.5,28.9,5,29.9
		c0.3,0.7,0.7,1.4,1.1,2.1c0.3,0.6,0.7,1.3,1.1,1.9c0.2,0.2,0.3,0.5,0.4,0.7c0.2,0.4,0.4,0.7,0.7,1c0.6,0.9,1.2,1.8,1.9,2.7l0.4,0.5
		c0.4,0.6,0.9,1.2,1.4,1.7c0.3,0.3,0.6,0.7,1,1.1c0.3,0.4,0.6,0.7,0.9,1.1l0.2,0.1c0.2,0.2,0.3,0.4,0.5,0.6c0.4,0.5,0.9,1.1,1.3,1.5
		c0.6,0.7,1.3,1.4,2,2.1c1.2,1.1,2.4,2.2,3.4,3c0.9,0.7,1.8,1.4,2.8,2.1c0.2,0.2,0.4,0.3,0.6,0.4c0.2,0.1,0.4,0.2,0.6,0.4l0.6,0.4
		c0.8,0.6,1.6,1,2.3,1.4c0.4,0.3,0.9,0.5,1.6,0.7c0.3,0.1,0.6,0.2,0.9,0.3s0.5,0.2,0.8,0.3c0.4,0.2,1,0.3,1.4,0.4h0.2
		c0.6,0.1,1.2,0.2,1.7,0.2h1.3l0,0V57h0.2c1,0,2.2-0.1,3.2-0.3c1-0.3,2-0.6,2.8-1.1c1.1-0.6,2.1-1.5,2.9-2.3c1-1.1,1.8-2.2,2.2-3.3
		c0.4-0.7,0.6-1.4,0.8-2c0.2-0.7,0.3-1.5,0.4-2.3C48.8,45.2,48.8,44.6,48.7,43.9z M16.3,21.9c-0.2,0.1-0.4,0.2-0.6,0.3
		c-0.4,0.2-0.7,0.4-1.1,0.6c-0.7,0.5-1,1.4-0.9,2.3v0.2c0,0.2,0.1,0.3,0.1,0.4c0,0.3,0.1,0.6,0.2,1c0.1,0.4,0.2,0.7,0.4,1.2l0.1,0.2
		c0.6,1.4,1.3,2.7,2.1,4.1c0.8,1.3,1.7,2.6,2.6,3.6c0.7,0.9,1.5,1.7,2.4,2.6l0.1,0.1c1.1,1,2.3,2.1,3.7,3l1.8,1.2
		c0.7,0.4,1.4,0.7,2.2,0.9c0.8,0.1,1.5-0.1,2.2-0.7c0.5-0.4,0.8-0.9,1.1-1.4c0.1-0.1,0.2-0.3,0.2-0.4l0.2-0.3
		c0.3-0.5,0.7-1.1,1.1-1.4l0.2-0.1c0.2-0.1,0.2-0.2,0.3-0.2H35c1.6,0.5,2.7,0.9,3.7,1.4c0.2,0.1,0.5,0.2,0.7,0.3s0.5,0.2,0.8,0.3
		c0.4,0.1,0.8,0.2,1.1,0.4l0.5,0.2c0.6,0.2,1.2,0.5,1.7,0.8h0.1h0.1c0.2,0.1,0.4,0.2,0.6,0.3c0.4,0.2,0.8,0.5,1.3,0.7
		c0.5,0.3,0.5,0.4,0.5,0.5v1c0,0.6-0.1,1.2-0.3,1.6c-0.2,0.6-0.4,1.2-0.7,1.7c-0.6,1-1.2,1.9-1.9,2.7c-0.5,0.7-1.2,1.3-2.2,1.8
		c-0.5,0.4-1.3,0.7-2.1,0.9S37.2,54,36.3,54h-1.5c-0.4,0-0.9-0.1-1.4-0.2c-0.2,0-0.5-0.1-0.7-0.2c-0.3-0.1-0.5-0.2-0.8-0.2
		c-0.5-0.1-1-0.3-1.5-0.5s-0.9-0.4-1.3-0.6c-0.5-0.2-0.9-0.5-1.4-0.8c-0.3-0.2-0.5-0.3-0.8-0.5l-0.6-0.4c-0.4-0.2-0.7-0.4-1.1-0.7
		c-0.9-0.6-1.7-1.3-2.6-2c-0.9-0.8-1.9-1.7-3.2-2.9c-0.3-0.4-0.6-0.7-1-1c-0.3-0.3-0.6-0.6-0.9-1s-0.6-0.7-1-1.1
		c-0.3-0.3-0.6-0.7-1-1.1l-0.1-0.1c-0.5-0.5-0.9-1-1.3-1.5c-0.2-0.2-0.4-0.5-0.6-0.7c-0.3-0.4-0.5-0.7-0.8-1.1
		c-0.3-0.3-0.5-0.7-0.8-1c-0.6-0.9-1.2-1.8-1.8-2.6c-0.2-0.2-0.3-0.5-0.5-0.8s-0.4-0.6-0.5-0.8c-0.2-0.3-0.4-0.6-0.5-0.9
		c-0.2-0.3-0.4-0.6-0.5-0.9C8,30.2,7.9,30,7.8,29.8c-0.3-0.5-0.5-0.9-0.8-1.4c-0.2-0.5-0.4-1-0.7-1.5c-0.2-0.5-0.4-1-0.6-1.5
		l-0.2-0.5c-0.2-0.6-0.4-1.2-0.6-1.8c-0.2-0.5-0.4-1.2-0.5-1.9l-0.1-0.3c-0.1-0.4-0.1-0.7-0.1-1v-2.1c0-0.4,0-0.9,0.1-1.4
		c0.1-0.7,0.3-1.4,0.6-2.3c0.4-1.2,1-2.3,1.8-3.2s1.7-1.7,2.7-2.2s2.1-0.8,3.4-1c0.5-0.1,1-0.1,1.3-0.1h0.2c0.4,0,0.8,0,0.9,0.1
		l0.1,0.1h0.1c0.4,0.1,0.7,0.4,1,0.8c0.5,0.7,0.7,1.4,0.9,2.3c0.4,1.6,0.8,3.2,1.1,4.8l0.1,0.5c0.2,0.8,0.3,1.5,0.4,2.2
		c0,0.1,0,0.3,0.1,0.4c0,0.1,0,0.2,0,0.2l0,1c0,0.2,0,0.3-0.1,0.4s-0.2,0.2-0.3,0.3c-0.2,0.2-0.4,0.3-0.6,0.4
		c-0.1,0.1-0.2,0.1-0.3,0.2c-0.3,0.1-0.5,0.3-0.8,0.3L16.3,21.9z"/>
	<path class="st0" d="M30.4,11.4c0.3,0.1,0.7,0.2,1.1,0.3c1.1,0.3,2.1,0.7,3.4,1.4l0.5,0.3c0.9,0.5,1.7,1,2.5,1.7
		c1.1,0.9,2.2,2,3.3,3.6c0.5,0.8,1,1.6,1.4,2.5l0.2-0.1l1.7,5.3h-0.2c0,0.2,0.1,0.5,0.1,0.7c0,0.3,0.1,0.5,0.1,0.8
		c0.1,0.5,0.1,0.9,0.1,1.5v0.2v0.1c0.2,0.7,0.7,1.1,1.3,1.1c0.1,0,0.2,0,0.2,0c0.8,0,1.1-0.7,1.2-0.9c0.2-0.3,0.2-0.6,0.2-1
		c0-0.1,0-0.2,0-0.3c0-0.3-0.1-0.6-0.1-0.9s-0.1-0.7-0.1-1c-0.1-0.8-0.2-1.5-0.4-2.2L46.8,24c-0.4-1.8-1-3.5-2-5.3
		C44,17.3,43,16,41.7,14.5c-0.6-0.7-1.4-1.5-2.3-2.1c-1.8-1.4-3.6-2.3-5.6-3C33.2,9.1,32.6,9,32,8.8l-0.5-0.1
		c-0.4-0.1-0.7-0.2-1.2,0c-0.6,0.2-1.1,1-0.9,1.7C29.6,10.9,29.9,11.3,30.4,11.4z"/>
	<path class="st0" d="M29.7,18.9c1.1,0.3,2,0.7,2.9,1.2c1.2,0.7,2.2,1.6,3,2.9c0.4,0.6,0.7,1.2,0.9,1.8c0.2,0.4,0.3,0.7,0.4,1.2v0.2
		c0.1,0.5,0.2,0.9,0.2,1.4v0.5c0.1,0.6,0.7,1.2,1.4,1.2l0,0c0.1,0,0.1,0,0.2,0c0.3,0,0.6-0.1,0.9-0.3c0.3-0.3,0.5-0.7,0.5-1.1
		c0-0.6,0-1.3-0.1-1.9c-0.2-1.2-0.5-2.3-0.9-3.3c-0.8-1.6-1.6-2.8-2.8-3.9s-2.4-1.9-3.7-2.3c-0.8-0.3-1.5-0.5-2.2-0.6
		c-0.5-0.1-0.9,0.2-1.3,0.5c-0.2,0.3-0.3,0.7-0.3,1C28.8,18.1,29.3,18.8,29.7,18.9z"/>
</g>
</svg>
